<svg width="32" height="37" viewBox="0 0 32 37" fill="none" xmlns="http://www.w3.org/2000/svg">
<path d="M0 8C0 4.22877 0 2.34315 1.17157 1.17157C2.34315 0 4.22876 0 8 0H24C27.7712 0 29.6569 0 30.8284 1.17157C32 2.34315 32 4.22876 32 8V28.7091C32 32.4804 32 34.366 30.8284 35.5376C29.6569 36.7092 27.7712 36.7092 24 36.7092H8C4.22876 36.7092 2.34315 36.7092 1.17157 35.5376C0 34.366 0 32.4804 0 28.7092V8Z" fill="white"/>
<path fill-rule="evenodd" clip-rule="evenodd" d="M21.8793 8.98199H14.3992L13.4945 13.6847H12.4945L13.5868 8.00699H14.1876L14.1889 8H23.0544L23.053 8.00699H23.0669L21.9746 13.6847H20.9746L21.8793 8.98199Z" fill="#105E46"/>
<rect width="12.3346" height="14.8015" transform="matrix(1 0 -0.188924 0.981992 11.6655 14.1742)" fill="#12805D"/>
<rect width="12.3346" height="14.8015" transform="matrix(1 0 -0.188924 0.981992 10.7963 13.4034)" fill="#02D693"/>
</svg>
