<svg width="22" height="22" viewBox="0 0 22 22" fill="none" xmlns="http://www.w3.org/2000/svg">
<path d="M18.5 2H17.75V1.27109C17.75 0.8675 17.4397 0.521094 17.0361 0.500938C16.9347 0.496052 16.8333 0.511805 16.7382 0.547244C16.6431 0.582682 16.5561 0.637067 16.4826 0.707104C16.4091 0.777141 16.3506 0.861371 16.3106 0.95469C16.2706 1.04801 16.25 1.14848 16.25 1.25V2H5.75V1.27109C5.75 0.8675 5.43969 0.521094 5.03609 0.500938C4.93469 0.496052 4.83334 0.511805 4.7382 0.547244C4.64307 0.582682 4.55611 0.637067 4.48261 0.707104C4.40911 0.777141 4.3506 0.861371 4.31062 0.95469C4.27063 1.04801 4.25001 1.14848 4.25 1.25V2H3.5C2.70435 2 1.94129 2.31607 1.37868 2.87868C0.816071 3.44129 0.5 4.20435 0.5 5V5.5625C0.5 5.61223 0.519754 5.65992 0.554918 5.69508C0.590081 5.73025 0.637772 5.75 0.6875 5.75H21.3125C21.3622 5.75 21.4099 5.73025 21.4451 5.69508C21.4802 5.65992 21.5 5.61223 21.5 5.5625V5C21.5 4.20435 21.1839 3.44129 20.6213 2.87868C20.0587 2.31607 19.2956 2 18.5 2ZM21.3125 7.25H0.6875C0.637772 7.25 0.590081 7.26975 0.554918 7.30492C0.519754 7.34008 0.5 7.38777 0.5 7.4375V18.5C0.5 19.2956 0.816071 20.0587 1.37868 20.6213C1.94129 21.1839 2.70435 21.5 3.5 21.5H18.5C19.2956 21.5 20.0587 21.1839 20.6213 20.6213C21.1839 20.0587 21.5 19.2956 21.5 18.5V7.4375C21.5 7.38777 21.4802 7.34008 21.4451 7.30492C21.4099 7.26975 21.3622 7.25 21.3125 7.25ZM10.2303 17.8016C9.65984 18.252 8.88266 18.5 8.04125 18.5C6.73484 18.5 5.76875 17.6487 5.33844 16.9203C5.23712 16.749 5.208 16.5444 5.25749 16.3517C5.30698 16.1589 5.43103 15.9937 5.60234 15.8923C5.77366 15.791 5.9782 15.7619 6.17099 15.8114C6.36377 15.8609 6.52899 15.9849 6.63031 16.1562C6.68094 16.2425 7.15297 17 8.04125 17C8.82219 17 9.73438 16.6583 9.73438 15.6959C9.73438 15.403 9.67719 14.9952 9.40625 14.7172C9.00594 14.3075 8.33984 14.1233 7.99484 14.1233C7.79593 14.1233 7.60517 14.0443 7.46451 13.9036C7.32386 13.763 7.24484 13.5722 7.24484 13.3733C7.24484 13.1744 7.32386 12.9836 7.46451 12.8429C7.60517 12.7023 7.79593 12.6233 7.99484 12.6233C8.22219 12.6233 8.81094 12.5014 9.17984 12.1241C9.27965 12.0259 9.35842 11.9085 9.41137 11.7789C9.46432 11.6493 9.49032 11.5103 9.48781 11.3703C9.48781 10.2814 8.14578 10.25 7.99297 10.25C7.18016 10.25 6.87734 10.7473 6.86469 10.7684C6.81596 10.8558 6.75025 10.9325 6.67142 10.9941C6.5926 11.0557 6.50225 11.1009 6.40569 11.127C6.30914 11.1532 6.20833 11.1597 6.1092 11.1463C6.01007 11.1329 5.91462 11.0998 5.82847 11.049C5.74233 10.9982 5.66722 10.9306 5.60758 10.8503C5.54794 10.77 5.50496 10.6786 5.48118 10.5814C5.4574 10.4842 5.4533 10.3833 5.46912 10.2845C5.48493 10.1857 5.52035 10.0911 5.57328 10.0062C5.93141 9.39687 6.75547 8.75 7.99297 8.75C8.76359 8.75 9.48172 8.97359 10.0147 9.37906C10.6423 9.85719 10.9878 10.5641 10.9878 11.3703C10.9899 11.7046 10.9258 12.0359 10.7992 12.3453C10.6725 12.6546 10.4859 12.9358 10.25 13.1727C10.1961 13.228 10.1394 13.2795 10.0817 13.3297C10.2225 13.4314 10.3546 13.5448 10.4764 13.6686C10.9714 14.1748 11.233 14.8756 11.233 15.6959C11.2344 16.5425 10.8777 17.2902 10.2303 17.8016ZM16.25 17.5625C16.25 17.7614 16.171 17.9522 16.0303 18.0928C15.8897 18.2335 15.6989 18.3125 15.5 18.3125C15.3011 18.3125 15.1103 18.2335 14.9697 18.0928C14.829 17.9522 14.75 17.7614 14.75 17.5625V11.0136L13.6948 11.7912C13.6156 11.8497 13.5255 11.892 13.4299 11.9157C13.3343 11.9394 13.2349 11.944 13.1375 11.9293C13.0401 11.9146 12.9465 11.8808 12.8622 11.83C12.7778 11.7791 12.7043 11.7121 12.6458 11.6328C12.5873 11.5535 12.545 11.4635 12.5213 11.3679C12.4976 11.2722 12.493 11.1729 12.5077 11.0755C12.5224 10.9781 12.5562 10.8845 12.6071 10.8001C12.6579 10.7158 12.7249 10.6422 12.8042 10.5837L14.8395 9.08375C14.9684 8.98877 15.1243 8.93752 15.2844 8.9375H15.5C15.6989 8.9375 15.8897 9.01652 16.0303 9.15717C16.171 9.29782 16.25 9.48859 16.25 9.6875V17.5625Z" fill="#1A1F16" fill-opacity="0.5"/>
</svg>
