<svg width="20" height="22" viewBox="0 0 20 22" fill="none" xmlns="http://www.w3.org/2000/svg">
<path d="M1.75 18.5C1.75 19.2957 2.06607 20.0587 2.62868 20.6213C3.19129 21.1839 3.95435 21.5 4.75 21.5H9.0625C9.11223 21.5 9.15992 21.4803 9.19508 21.4451C9.23025 21.4099 9.25 21.3622 9.25 21.3125V12.6875C9.25 12.6378 9.23025 12.5901 9.19508 12.5549C9.15992 12.5198 9.11223 12.5 9.0625 12.5H2.125C2.02554 12.5 1.93016 12.5395 1.85984 12.6098C1.78951 12.6802 1.75 12.7755 1.75 12.875V18.5ZM9.25 10.8125V5.75H10.75V10.8125C10.75 10.8622 10.7698 10.9099 10.8049 10.9451C10.8401 10.9802 10.8878 11 10.9375 11H17.5C17.7555 11 18.0091 10.9564 18.25 10.8711C18.6883 10.7155 19.0677 10.4281 19.3363 10.0484C19.6048 9.66862 19.7493 9.21511 19.75 8.75V8C19.75 7.40327 19.5129 6.83097 19.091 6.40901C18.669 5.98706 18.0967 5.75 17.5 5.75H15.5997C15.5834 5.74974 15.5674 5.74522 15.5533 5.73689C15.5393 5.72855 15.5277 5.71669 15.5196 5.70248C15.5116 5.68828 15.5074 5.67221 15.5074 5.65588C15.5075 5.63955 15.5118 5.62352 15.52 5.60938C15.954 4.87667 16.0949 4.00698 15.9146 3.1747C15.7343 2.34243 15.246 1.60909 14.5476 1.12174C13.8492 0.634383 12.9925 0.429046 12.1491 0.546897C11.3057 0.664748 10.538 1.09708 10 1.75719C9.46199 1.09708 8.69432 0.664748 7.85092 0.546897C7.00752 0.429046 6.15075 0.634383 5.4524 1.12174C4.75405 1.60909 4.26574 2.34243 4.0854 3.1747C3.90506 4.00698 4.04602 4.87667 4.48 5.60938C4.48817 5.62352 4.4925 5.63955 4.49257 5.65588C4.49263 5.67221 4.48843 5.68828 4.48038 5.70248C4.47233 5.71669 4.46071 5.72855 4.44666 5.73689C4.43262 5.74522 4.41664 5.74974 4.40031 5.75H2.5C1.90326 5.75 1.33097 5.98706 0.90901 6.40901C0.487053 6.83097 0.25 7.40327 0.25 8V8.75C0.250662 9.21511 0.395173 9.66862 0.66372 10.0484C0.932267 10.4281 1.3117 10.7155 1.75 10.8711C1.99085 10.9564 2.24449 11 2.5 11H9.0625C9.11223 11 9.15992 10.9802 9.19508 10.9451C9.23025 10.9099 9.25 10.8622 9.25 10.8125ZM10.75 3.875C10.75 3.50416 10.86 3.14165 11.066 2.83331C11.272 2.52497 11.5649 2.28464 11.9075 2.14273C12.2501 2.00081 12.6271 1.96368 12.9908 2.03603C13.3545 2.10838 13.6886 2.28695 13.9508 2.54918C14.213 2.8114 14.3916 3.14549 14.464 3.50921C14.5363 3.87292 14.4992 4.24992 14.3573 4.59253C14.2154 4.93515 13.975 5.22798 13.6667 5.43401C13.3584 5.64004 12.9958 5.75 12.625 5.75H10.75V3.875ZM7.24094 2.00469C7.49781 1.98628 7.75572 2.02098 7.9986 2.10663C8.24147 2.19228 8.46409 2.32705 8.65259 2.50252C8.84108 2.678 8.99141 2.89043 9.09419 3.12656C9.19698 3.36269 9.25002 3.61747 9.25 3.875V5.75H7.375C6.89017 5.74876 6.42467 5.55976 6.07619 5.22267C5.72771 4.88558 5.52336 4.42661 5.50601 3.94209C5.48867 3.45757 5.65968 2.98516 5.98316 2.62401C6.30664 2.26287 6.75744 2.04107 7.24094 2.00516V2.00469ZM10.9375 21.5H15.25C16.0456 21.5 16.8087 21.1839 17.3713 20.6213C17.9339 20.0587 18.25 19.2957 18.25 18.5V12.875C18.25 12.7755 18.2105 12.6802 18.1402 12.6098C18.0698 12.5395 17.9745 12.5 17.875 12.5H10.9375C10.8878 12.5 10.8401 12.5198 10.8049 12.5549C10.7698 12.5901 10.75 12.6378 10.75 12.6875V21.3125C10.75 21.3622 10.7698 21.4099 10.8049 21.4451C10.8401 21.4803 10.8878 21.5 10.9375 21.5Z" fill="#1A1F16"/>
</svg>
