<svg width="18" height="23" viewBox="0 0 18 23" fill="none" xmlns="http://www.w3.org/2000/svg">
<path d="M14.25 8.5H13.5V4.75C13.5 3.55653 13.0259 2.41193 12.182 1.56802C11.3381 0.724106 10.1935 0.25 9 0.25C7.80653 0.25 6.66193 0.724106 5.81802 1.56802C4.97411 2.41193 4.5 3.55653 4.5 4.75V8.5H3.75C2.95462 8.50087 2.19206 8.81722 1.62964 9.37964C1.06722 9.94206 0.750869 10.7046 0.75 11.5V19.75C0.750869 20.5454 1.06722 21.3079 1.62964 21.8704C2.19206 22.4328 2.95462 22.7491 3.75 22.75H14.25C15.0454 22.7491 15.8079 22.4328 16.3704 21.8704C16.9328 21.3079 17.2491 20.5454 17.25 19.75V11.5C17.2491 10.7046 16.9328 9.94206 16.3704 9.37964C15.8079 8.81722 15.0454 8.50087 14.25 8.5ZM12 8.5H6V4.75C6 3.95435 6.31607 3.19129 6.87868 2.62868C7.44129 2.06607 8.20435 1.75 9 1.75C9.79565 1.75 10.5587 2.06607 11.1213 2.62868C11.6839 3.19129 12 3.95435 12 4.75V8.5Z" fill="#02D693"/>
</svg>
